<svg width="80" height="71" viewBox="0 0 80 71" fill="none" xmlns="http://www.w3.org/2000/svg">
<path d="M29.7914 22.1794C28.0367 21.8748 26.7749 21.1209 26.0763 19.8648C25.6178 19.0603 25.3934 17.9722 25.3934 16.6037H27.503C27.5669 17.694 27.743 18.4909 28.0152 18.9931C28.5167 19.8939 29.4339 20.3992 30.781 20.5112V13.9947C29.0553 13.6686 27.7806 13.1235 26.9542 12.3588C26.13 11.5919 25.7192 10.5334 25.7192 9.17782C25.7192 7.96698 26.1622 6.87665 27.0471 5.90099C27.9379 4.93071 29.1782 4.43616 30.7757 4.42003V2.8329H31.9065V4.39674C33.4905 4.50917 34.704 4.97416 35.5496 5.79751C36.3948 6.62086 36.8377 7.70582 36.8802 9.05866H34.7974C34.7442 8.45437 34.5788 7.93339 34.3066 7.49483C33.8051 6.69029 33.0104 6.26787 31.9118 6.228V12.0497C33.7546 12.5684 35.0083 13.0549 35.6667 13.5065C36.7443 14.255 37.2775 15.3642 37.2775 16.829C37.2775 18.9487 36.5897 20.4534 35.2162 21.3462C34.6535 21.7122 33.8346 21.9555 32.8987 22.1373C35.643 22.231 38.3739 22.6744 41.0087 23.4709C43.505 20.9825 45.0466 17.5399 45.0466 13.739C45.0466 6.1505 38.9071 0 31.3357 0C23.7669 0 17.6302 6.1505 17.6302 13.739C17.6302 17.6573 19.2759 21.1859 21.9027 23.6877C24.4575 22.8478 27.1137 22.3452 29.7914 22.1794Z" fill="#303030"/>
<path d="M28.6607 10.889C29.1858 11.3352 29.8956 11.6456 30.7864 11.8217V6.20337C29.7329 6.24593 28.9861 6.56174 28.5436 7.15753C28.0984 7.75645 27.874 8.3818 27.874 9.03672C27.874 9.82513 28.1404 10.4424 28.6607 10.889Z" fill="#303030"/>
<path d="M35.1357 17.4136C35.1357 16.4164 34.7706 15.6603 34.0425 15.1415C33.621 14.8396 32.9117 14.5534 31.9167 14.2837V20.5704C33.2768 20.5063 34.2128 20.0091 34.7357 19.0764C35.0025 18.5976 35.1357 18.0416 35.1357 17.4136Z" fill="#303030"/>
<path d="M78.3377 49.8173C80.0125 48.072 80.1671 44.8243 79.89 40.4863C77.9216 40.3528 75.02 40.6816 73.9933 40.4863C71.5024 35.5175 67.9205 31.639 62.8216 29.2868C62.9924 26.0418 63.4322 23.0561 65.3071 21.5111C60.7522 21.1984 56.9035 24.2831 54.4447 27.111C52.2417 24.8148 48.9749 22.9894 45.1373 21.7037L42.7479 25.9643C35.643 23.5103 27.8396 23.5345 20.775 26.0391L17.6566 21.8399C17.6485 21.8265 17.6351 21.8157 17.6244 21.805C12.7521 23.4221 8.26332 25.9562 4.78331 29.6017C2.51411 29.4284 2.77513 24.8175 5.71968 25.558C0.926961 22.2865 -1.71322 31.2538 2.92218 32.4006C-0.942214 37.9306 -1.30738 49.8146 3.85543 54.1741C4.61034 60.7256 5.76751 66.8761 8.94404 70.9973H19.3769C19.0994 68.8749 18.8249 66.6082 19.0649 64.1305C25.3988 65.5712 32.9251 65.9936 40.4778 65.3763C41.6457 67.3169 42.7716 69.2897 44.1661 71H54.4899C54.1113 68.2603 53.7032 65.3871 54.4447 62.5774C56.9088 62.0968 69.7021 58.8388 78.3377 49.8173ZM64.0856 35.9368C65.5016 35.9368 66.6538 37.0889 66.6538 38.5081C66.6538 39.9272 65.5016 41.0794 64.0856 41.0794C62.6723 41.0794 61.5228 39.9272 61.5228 38.5081C61.5228 37.0889 62.6719 35.9368 64.0856 35.9368Z" fill="#303030"/>
</svg>
